<?xml version="1.0" encoding="UTF-8" standalone="no"?>
<!-- Created with Inkscape (http://www.inkscape.org/) -->

<svg
   width="159.10257mm"
   height="137.93622mm"
   viewBox="0 0 159.10257 137.93622"
   version="1.1"
   id="svg5"
   inkscape:version="1.2.2 (732a01da63, 2022-12-09)"
   sodipodi:docname="banner.svg"
   inkscape:export-filename="..\banner.png"
   inkscape:export-xdpi="94.281258"
   inkscape:export-ydpi="94.281258"
   xmlns:inkscape="http://www.inkscape.org/namespaces/inkscape"
   xmlns:sodipodi="http://sodipodi.sourceforge.net/DTD/sodipodi-0.dtd"
   xmlns="http://www.w3.org/2000/svg"
   xmlns:svg="http://www.w3.org/2000/svg">
  <sodipodi:namedview
     id="namedview7"
     pagecolor="#ffffff"
     bordercolor="#000000"
     borderopacity="0.25"
     inkscape:showpageshadow="2"
     inkscape:pageopacity="0.0"
     inkscape:pagecheckerboard="0"
     inkscape:deskcolor="#d1d1d1"
     inkscape:document-units="mm"
     showgrid="false"
     inkscape:zoom="0.914906"
     inkscape:cx="-95.091736"
     inkscape:cy="191.27648"
     inkscape:window-width="2497"
     inkscape:window-height="1417"
     inkscape:window-x="55"
     inkscape:window-y="-8"
     inkscape:window-maximized="1"
     inkscape:current-layer="g272" />
  <defs
     id="defs2" />
  <g
     inkscape:label="Layer 1"
     inkscape:groupmode="layer"
     id="layer1"
     transform="translate(-26.582114,-55.673564)">
    <g
       transform="matrix(0.26458333,0,0,0.26458333,-4.3317256,19.999083)"
       id="g272">
      <path
         d="m 180.267,580.254 c 4.227,3.44 5.277,7.326 20.689,14.648 10.857,5.158 16.141,8.033 27.362,11.984 3.054,1.075 6.32,1.503 9.343,2.663 2.786,1.069 5.272,2.808 8.009,3.995 2.388,1.036 4.894,1.775 7.341,2.663 23.057,17.891 -13.211,-10.481 12.68,10.653 2.582,2.108 5.445,3.861 8.008,5.992 1.45,1.206 2.42,2.972 4.004,3.995 6.192,3.997 12.007,4.41 19.354,5.326 4.876,0.608 9.808,0.708 14.682,1.332 3.809,0.487 7.589,1.202 11.346,1.997 3.589,0.76 7.042,2.173 10.678,2.664 4.634,0.624 9.342,0.458 14.014,0.665 l 16.017,0.666 c 5.562,0.666 11.089,1.744 16.684,1.998 14.002,0.635 28.032,0.328 42.045,0.665 4.453,0.107 8.898,0.444 13.347,0.666 5.784,0.666 11.546,1.56 17.352,1.998 15.969,1.202 21.702,0.543 38.04,0 5.784,-0.444 11.617,-0.459 17.351,-1.332 7.419,-1.129 14.536,-4.163 22.024,-4.661 13.809,-0.918 6.689,-0.276 21.355,-1.997 12.812,-3.605 26.418,-4.818 36.706,-13.982 3.187,-2.839 5.339,-6.658 8.008,-9.987 4.198,-10.609 9.92,-28.197 17.352,-38.616 5.317,-7.456 10.744,-14.959 17.351,-21.306 l 18.019,-17.311 c 3.377,-3.288 6.94,-6.412 10.011,-9.987 6.674,-7.767 14.23,-14.859 20.021,-23.303 14.374,-20.958 7.773,-10.182 24.025,-42.611 2.314,-4.617 6.674,-13.981 6.674,-13.981 0.89,-4.883 1.714,-9.778 2.669,-14.648 1.048,-5.34 2.566,-10.593 3.337,-15.979 0.789,-5.51 0.89,-11.097 1.335,-16.645 -1.78,-8.434 -4.136,-16.766 -5.339,-25.301 -1.457,-10.337 -0.087,-46.257 0,-50.6 -0.612,-9.166 -0.242,-21.433 -4.004,-30.627 -0.781,-1.908 -12.704,-26.22 -16.017,-32.624 -1.735,-3.353 -3.729,-6.574 -5.339,-9.987 -14.806,-31.389 5.67,10.815 -13.347,-23.969 -8.963,-16.392 2.15,-5.933 -15.35,-28.629 -10.668,-13.836 -2.139,-4.036 -15.349,-15.98 -4.315,-3.9 -7.612,-9.126 -12.68,-11.984 l -15.35,-8.655 c -6.528,-3.664 -7.27,-4.391 -15.349,-6.658 -6.565,-1.842 -22.128,-4.62 -28.03,-5.327 -5.76,-0.689 -11.568,-0.888 -17.352,-1.331 -10.419,-1.642 -14.839,-2.561 -25.36,-3.329 -12.378,-0.904 -39.149,-1.136 -47.383,-1.332 l -23.358,-0.666 c -4.671,-0.666 -9.327,-1.458 -14.014,-1.997 -15.149,-1.744 -31.617,-2.836 -46.716,-3.995 -7.038,-2.006 -4.282,-1.566 -14.015,-1.997 -7.962,-0.353 -22.867,-0.501 -32.034,-1.332 -8.465,-0.768 -16.87,-2.24 -25.36,-2.663 -4.449,-0.222 -8.904,-0.349 -13.347,-0.666 -11.13,-0.793 -22.224,-2.107 -33.369,-2.663 L 265.691,135.5 c -11.345,0.444 -22.72,0.404 -34.036,1.332 -8.826,0.723 -17.624,3.357 -26.027,5.992 -9.252,2.901 -13.348,4.328 -22.024,7.989 -2.475,1.045 -4.916,2.172 -7.341,3.329 -6.802,3.246 -9.561,4.372 -15.349,9.322 -9.328,7.976 -18.712,22.021 -23.358,31.292 l -6.007,11.985 c -4.67,26.402 0.487,-4.162 -3.336,23.303 -0.559,4.011 -1.428,7.975 -2.002,11.984 -0.761,5.314 -1.184,10.674 -2.003,15.979 -0.962,6.239 -2.35,12.407 -3.336,18.643 -1.016,6.417 -1.78,12.872 -2.67,19.308 -0.641,17.897 -2.042,19.227 2.67,36.619 2.863,10.57 7.749,20.578 10.01,31.292 0.89,4.217 1.887,8.413 2.67,12.65 0.775,4.199 1.282,8.443 2.002,12.651 0.837,4.891 1.851,9.752 2.669,14.647 0.74,4.427 1.301,8.883 2.002,13.316 0.633,4.001 1.335,7.99 2.002,11.985 0.445,8.433 1.071,16.859 1.335,25.3 0.445,14.204 0.152,28.449 1.335,42.611 0.601,7.201 2.248,14.296 4.004,21.306 0.667,2.663 1.086,5.401 2.002,7.989 1.76,4.975 4.043,9.75 6.007,14.648 2.255,5.625 2.928,9.043 6.673,14.647 0.445,0.666 0.91,1.319 1.335,1.998 0.942,1.504 2.193,3.805 3.337,5.326 0.854,1.137 1.936,2.111 2.669,3.329 2.993,4.977 -0.573,2.06 3.337,4.661 0.445,1.109 0.7,2.315 1.335,3.329 2.159,3.447 0.445,2.552 4.671,5.992 z"
         stroke="#172c51"
         stroke-width="1.33333"
         stroke-miterlimit="8"
         fill="#e7e6e6"
         fill-rule="evenodd"
         id="path182" />
      <path
         d="m 192.5,178.5 c 9.068,-4.141 27.189,1.374 36.4,0 9.211,-1.374 26.028,2.099 33.6,0 3.533,15.991 -4.9,27.952 0,41.76 4.9,13.809 -0.312,22.764 0,45.24 -8.131,1.135 -23.415,-1.188 -32.9,0 -9.485,1.188 -28.636,-1.22 -37.1,0 -3.824,-13.753 4.213,-28.064 0,-41.76 -4.213,-13.696 4.797,-25.67 0,-45.24 z"
         fill="#ffffff"
         fill-rule="evenodd"
         id="path184" />
      <path
         d="m 192.5,178.5 c 7.949,-3.547 24.124,3.633 33.6,0 9.476,-3.633 19.71,0.58 36.4,0 3.433,10.049 -0.104,22.473 0,44.37 0.104,21.897 -1.506,24.445 0,42.63 -7.254,0.871 -26.11,-1.4 -33.6,0 -7.49,1.4 -27.932,-0.332 -36.4,0 -4.463,-16.836 1.016,-26.244 0,-45.24 -1.016,-18.996 3.575,-26.923 0,-41.76 z"
         stroke="#172c51"
         stroke-width="1.33333"
         stroke-miterlimit="8"
         fill="none"
         fill-rule="evenodd"
         id="path186" />
      <text
         font-family="Calibri, Calibri_MSFontService, sans-serif"
         font-weight="400"
         font-size="24px"
         transform="translate(205.503,214)"
         id="text188">data</text>
      <text
         font-family="Calibri, Calibri_MSFontService, sans-serif"
         font-weight="400"
         font-size="24px"
         transform="translate(204.163,243)"
         id="text190">clas</text>
      <text
         font-family="Calibri, Calibri_MSFontService, sans-serif"
         font-weight="400"
         font-size="24px"
         transform="translate(240.663,243)"
         id="text192">s</text>
      <path
         d="m 261.974,219.091 1.205,-1.55 1.025,-1.205 1.268,-1.217 1.911,-1.58 1.845,-1.532 -0.017,0.015 1.52,-1.349 2.504,-2.184 2.485,-1.49 1.526,-0.481 1.761,-0.277 12.298,-1.023 -0.265,0.08 2.038,-1.12 -0.043,0.025 1.943,-1.263 -0.2,0.202 0.522,-0.824 -0.024,0.04 0.526,-0.975 1.737,-1.612 1.664,-1.529 -0.078,0.084 1.32,-1.716 1.374,-1.739 0.855,-0.775 0.787,-0.498 1.82,-0.679 3.354,1.115 -0.075,-0.02 3.172,0.661 -0.198,-0.011 3.649,-0.34 -0.119,0.022 3.058,-0.861 -0.07,0.023 2.914,-1.181 -0.099,0.05 1.707,-1.051 2.124,-0.849 0.495,1.238 -2.071,0.828 0.103,-0.052 -1.706,1.051 -3,1.216 -3.151,0.888 -3.81,0.355 -3.308,-0.689 -3.167,-1.054 0.443,-0.008 -1.534,0.573 0.123,-0.061 -0.679,0.43 0.091,-0.07 -0.771,0.7 0.075,-0.081 -1.337,1.692 0.005,-0.007 -1.352,1.758 -1.705,1.567 0.003,-0.002 -1.655,1.536 0.133,-0.172 -0.484,0.898 -0.612,0.967 -2.086,1.356 -2.184,1.201 -12.415,1.033 0.048,-0.006 -1.687,0.265 0.096,-0.022 -1.404,0.442 0.143,-0.064 -2.367,1.419 0.096,-0.07 -2.457,2.144 0.004,-0.004 -1.526,1.354 -1.855,1.541 -1.892,1.564 0.037,-0.033 -1.226,1.177 0.046,-0.049 -0.994,1.168 0.019,-0.023 -1.197,1.538 z m 60.931,-31.685 8.595,2.475 -7.137,5.391 z"
         fill="#172c51"
         id="path194" />
      <path
         d="m 475.5,187.5 c 21.751,-5.524 36.628,5.17 54.08,0 17.453,-5.17 32.837,2.23 49.92,0 2.225,14.115 -2.934,24.847 0,34 -16.066,2.669 -31.899,-1.004 -50.96,0 -19.061,1.004 -34.799,-3.397 -53.04,0 -0.273,-6.958 0.892,-19.899 0,-34 z"
         fill="#ffffff"
         fill-rule="evenodd"
         id="path196" />
      <path
         d="m 475.5,187.5 c 12.786,-1.596 27.874,2.996 48.88,0 21.006,-2.996 35.465,5.522 55.12,0 0.585,7.263 -3.394,18.771 0,34 -24.348,4.496 -33.1,-0.257 -50.96,0 -17.86,0.257 -38.366,-2.82 -53.04,0 -3.207,-15.549 0.245,-18.973 0,-34 z"
         stroke="#172c51"
         stroke-width="1.33333"
         stroke-miterlimit="8"
         fill="none"
         fill-rule="evenodd"
         id="path198" />
      <text
         font-family="Calibri, Calibri_MSFontService, sans-serif"
         font-weight="400"
         font-size="24px"
         transform="translate(489.845,212)"
         id="text200">data.txt</text>
      <path
         d="m 332.5,177.5 c 21.403,-1.194 30.109,1.877 59.28,0 29.171,-1.877 42.4,5.18 54.72,0 4.306,16.066 -0.908,25.053 0,36 -23.596,2.342 -41.406,-2.102 -55.86,0 -14.453,2.102 -33.513,-4.838 -58.14,0 -3.19,-13.922 3.069,-25.827 0,-36 z"
         fill="#ffffff"
         fill-rule="evenodd"
         id="path202" />
      <path
         d="m 332.5,177.5 c 11.338,-5.814 31.487,5.087 53.58,0 22.093,-5.087 44.733,4.243 60.42,0 0.712,8.413 -0.256,19.389 0,36 -21.578,5.25 -38.467,-6.057 -55.86,0 -17.393,6.058 -43.486,-2.558 -58.14,0 -3.444,-9.603 0.384,-21.971 0,-36 z"
         stroke="#172c51"
         stroke-width="1.33333"
         stroke-miterlimit="8"
         fill="none"
         fill-rule="evenodd"
         id="path204" />
      <text
         font-family="Calibri, Calibri_MSFontService, sans-serif"
         font-weight="400"
         font-size="24px"
         transform="translate(345.477,203)"
         id="text206">serializer</text>
      <path
         d="m 447.5,194.844 5.808,0.002 3.015,0.233 2.921,0.73 1.21,0.544 1.759,0.859 1.713,0.874 1.092,0.601 1.378,1.298 -0.166,-0.114 2.301,1.117 -0.582,1.199 -2.393,-1.161 -1.391,-1.31 0.135,0.099 -1.008,-0.556 0.019,0.01 -1.698,-0.866 0.01,0.005 -1.744,-0.853 0.019,0.009 -1.147,-0.515 0.112,0.039 -2.809,-0.702 0.11,0.018 -2.933,-0.227 0.051,0.002 -5.782,-0.001 z m 20.864,2.529 6.136,6.507 -8.888,1.005 z"
         fill="#172c51"
         id="path208" />
      <path
         d="m 474.5,258.5 c 12.845,-3.65 32.031,1.254 48.407,0 16.376,-1.254 20.849,3.101 41.556,0 20.707,-3.101 24.449,0.073 47.037,0 0.353,13.207 -0.049,21.535 0,36 -18.76,0.994 -31.706,-4.519 -41.557,0 -9.85,4.519 -38.274,-1.172 -48.406,0 -10.132,1.172 -34.805,-1.773 -47.037,0 -0.316,-12.877 4.291,-28.033 0,-36 z"
         fill="#ffffff"
         fill-rule="evenodd"
         id="path210" />
      <path
         d="m 474.5,258.5 c 10.224,-4.005 25.143,4.456 42.927,0 17.783,-4.456 34.82,4.714 44.296,0 9.476,-4.714 38.209,3.193 49.777,0 3.367,15.005 -2.64,26.323 0,36 -13.372,1.727 -30.869,-2.224 -42.927,0 -12.057,2.224 -26.305,-4.296 -47.036,0 -20.732,4.296 -34.73,-4.892 -47.037,0 -3.821,-10.655 0.931,-20.462 0,-36 z"
         stroke="#172c51"
         stroke-width="1.33333"
         stroke-miterlimit="8"
         fill="none"
         fill-rule="evenodd"
         id="path212" />
      <text
         font-family="Calibri, Calibri_MSFontService, sans-serif"
         font-weight="400"
         font-size="24px"
         transform="translate(486.844,283)"
         id="text214">deserializer</text>
      <path
         d="m 277.5,250.5 c 18.648,-6.782 41.818,5.264 57.24,0 15.423,-5.264 27.774,2.989 49.14,0 21.366,-2.989 40.727,5.541 55.62,0 0.353,13.207 -0.049,21.535 0,36 -10.587,0.451 -30.469,-4.267 -49.14,0 -18.671,4.267 -30.795,-4.839 -57.24,0 -26.445,4.839 -41.427,-0.687 -55.62,0 -0.317,-12.877 4.296,-28.033 0,-36 z"
         fill="#ffffff"
         fill-rule="evenodd"
         id="path216" />
      <path
         d="m 277.5,250.5 c 17.461,-1.835 32.224,5.434 50.76,0 18.537,-5.434 29.927,5.272 52.38,0 22.454,-5.272 41.808,3.112 58.86,0 3.371,15.005 -2.643,26.323 0,36 -22.008,1.483 -31.915,-1.622 -50.76,0 -18.845,1.623 -41.284,-3.749 -55.62,0 -14.336,3.749 -41.86,-4.003 -55.62,0 -3.826,-10.655 0.932,-20.462 0,-36 z"
         stroke="#172c51"
         stroke-width="1.33333"
         stroke-miterlimit="8"
         fill="none"
         fill-rule="evenodd"
         id="path218" />
      <text
         font-family="Calibri, Calibri_MSFontService, sans-serif"
         font-weight="400"
         font-size="24px"
         transform="translate(290.661,275)"
         id="text220">normalization</text>
      <path
         d="m 524.449,222.556 -0.564,6.652 -0.401,1.636 -0.33,1.01 0.025,-0.307 0.171,1.109 -0.061,-0.194 0.404,0.818 -0.031,-0.057 0.689,1.11 -0.142,-0.162 1.02,0.843 -0.1,-0.068 1.433,0.799 0.373,1.003 0.378,1.054 0.339,1.073 0.162,0.851 -0.219,2.65 -0.352,2.554 0.002,-0.168 0.304,2.635 -0.036,-0.152 0.733,2.015 -1.253,0.456 -0.76,-2.089 -0.322,-2.796 0.361,-2.619 -0.004,0.036 0.21,-2.541 0.009,0.179 -0.137,-0.723 0.019,0.076 -0.323,-1.023 0.008,0.024 -0.372,-1.039 0.002,0.008 -0.286,-0.769 0.3,0.35 -1.272,-0.71 -1.15,-0.951 -0.764,-1.23 -0.464,-0.939 -0.211,-1.368 0.371,-1.138 -0.013,0.048 0.382,-1.561 -0.016,0.103 0.559,-6.6 z m 6.202,24.001 -0.151,8.943 -7.064,-5.486 z"
         fill="#172c51"
         id="path222" />
      <path
         d="m 473.367,276.653 -2.478,-0.503 -1.986,-0.504 0.09,0.016 -4.433,-0.499 0.109,0.003 -3.455,0.182 0.027,-0.002 -3.441,0.318 0.13,-0.025 -1.49,0.445 0.045,-0.015 -1.501,0.568 -2.216,0.562 -1.694,-0.673 0.008,0.003 -0.751,-0.287 -0.82,-0.364 0.243,-0.646 -0.037,0.153 0.018,-0.147 0.101,0.444 -0.239,-0.371 0.096,0.117 -0.752,-0.729 0.047,0.041 -1.518,-1.221 0.135,0.085 -1.366,-0.64 0.566,-1.208 1.438,0.674 1.604,1.29 0.828,0.803 0.413,0.638 -0.058,0.466 -0.049,0.131 -0.353,-0.843 0.229,0.101 -0.033,-0.013 0.738,0.282 1.498,0.596 -0.411,-0.027 1.971,-0.5 -0.072,0.023 1.487,-0.564 1.577,-0.471 3.519,-0.325 3.523,-0.186 4.533,0.512 2.014,0.511 -0.031,-0.007 2.463,0.5 z m -27.357,-0.108 -5.51,-7.045 8.943,-0.181 z"
         fill="#172c51"
         id="path224" />
      <path
         d="m 275.887,266.763 -2,-4.666 0.053,0.099 -1.043,-1.612 0.053,0.071 -1.447,-1.691 0.033,0.036 -1.451,-1.466 0.096,0.081 -2.15,-1.473 0.753,-1.1 2.203,1.509 1.514,1.528 1.491,1.743 1.098,1.697 2.023,4.718 z m -8.152,-7.009 -5.235,-7.252 8.943,0.163 z"
         fill="#172c51"
         id="path226" />
      <path
         d="m 213.5,426.5 c 54.168,-14.573 100.475,9.551 174,0 0.874,15.481 -2.232,83.185 0,132 -49.717,13.23 -132.2,13.641 -174,0 2.931,-27.193 -0.155,-95.239 0,-132 z"
         fill="#ffffff"
         fill-rule="evenodd"
         id="path228" />
      <path
         d="m 213.5,426.5 c 45.465,-10.797 109.348,-5.284 174,0 -10.692,55.859 7.981,93.366 0,132 -23.319,9.857 -152.926,-4.423 -174,0 4.053,-25.772 11.254,-103.67 0,-132 z"
         stroke="#172c51"
         stroke-width="1.33333"
         stroke-miterlimit="8"
         fill="none"
         fill-rule="evenodd"
         id="path230" />
      <text
         font-family="Calibri, Calibri_MSFontService, sans-serif"
         font-weight="400"
         font-size="24px"
         transform="translate(253.154,456)"
         id="text232">data</text>
      <text
         font-family="Calibri, Calibri_MSFontService, sans-serif"
         font-weight="400"
         font-size="24px"
         transform="translate(301.807,456)"
         id="text234">class</text>
      <text
         font-family="Calibri, Calibri_MSFontService, sans-serif"
         font-weight="400"
         font-size="24px"
         transform="translate(222.98,485)"
         id="text236">+</text>
      <text
         font-family="Calibri, Calibri_MSFontService, sans-serif"
         font-weight="400"
         font-size="24px"
         transform="translate(240.48,485)"
         id="text238">serializer</text>
      <text
         font-family="Calibri, Calibri_MSFontService, sans-serif"
         font-weight="400"
         font-size="24px"
         transform="translate(222.98,514)"
         id="text240">+</text>
      <text
         font-family="Calibri, Calibri_MSFontService, sans-serif"
         font-weight="400"
         font-size="24px"
         transform="translate(240.48,514)"
         id="text242">deserializer</text>
      <text
         font-family="Calibri, Calibri_MSFontService, sans-serif"
         font-weight="400"
         font-size="24px"
         transform="translate(222.98,543)"
         id="text244">+</text>
      <text
         font-family="Calibri, Calibri_MSFontService, sans-serif"
         font-weight="400"
         font-size="24px"
         transform="translate(240.48,543)"
         id="text246">normalization</text>
      <path
         d="m 447.5,475.5 c 41.327,-8.31 57.743,-7.022 104,0 -0.222,14.069 -0.748,27.211 0,34 -15.106,-9.31 -53.14,-4.435 -104,0 -2.823,-7.802 0.323,-30.299 0,-34 z"
         fill="#ffffff"
         fill-rule="evenodd"
         id="path248" />
      <path
         d="m 447.5,475.5 c 27.493,1.268 61.575,3.5 104,0 -1.485,15.097 1.737,25.919 0,34 -18.483,6.646 -85.339,-7.907 -104,0 3.038,-6.391 0.773,-27.821 0,-34 z"
         stroke="#172c51"
         stroke-width="1.33333"
         stroke-miterlimit="8"
         fill="none"
         fill-rule="evenodd"
         id="path250" />
      <text
         font-family="Calibri, Calibri_MSFontService, sans-serif"
         font-weight="400"
         font-size="24px"
         transform="translate(461.643,499)"
         id="text252">data.txt</text>
      <path
         d="m 394.167,491.833 h 46.457 v 1.334 h -46.457 z m 1.333,4.667 -8,-4 8,-4 z m 43.791,-8 8,4 -8,4 z"
         fill="#172c51"
         id="path254" />
      <text
         font-family="'Felix Titling', 'Felix Titling_MSFontService', sans-serif"
         font-weight="700"
         font-size="59px"
         transform="rotate(42.459289,-99.482738,948.90078)"
         id="text256">:(</text>
      <text
         font-family="'Arial Nova', 'Arial Nova_MSFontService', sans-serif"
         font-weight="400"
         font-size="24px"
         id="text258"
         x="211.76628"
         y="333">convoluted</text>
      <text
         font-family="'Arial Nova', 'Arial Nova_MSFontService', sans-serif"
         font-weight="400"
         font-size="24px"
         id="text260"
         x="353.44168"
         y="333">and</text>
      <text
         font-family="'Arial Nova', 'Arial Nova_MSFontService', sans-serif"
         font-weight="400"
         font-size="24px"
         id="text262"
         x="405.98489"
         y="333">complicated</text>
      <text
         font-family="'Arial Nova', 'Arial Nova_MSFontService', sans-serif"
         font-weight="400"
         font-size="24px"
         transform="translate(553.238,333)"
         id="text264">code</text>
      <text
         font-family="'Felix Titling', 'Felix Titling_MSFontService', sans-serif"
         font-weight="700"
         font-size="59px"
         transform="rotate(42.459289)"
         id="text266"
         x="793.47992"
         y="83.155365">:)</text>
      <text
         font-family="'Arial Nova', 'Arial Nova_MSFontService', sans-serif"
         font-weight="400"
         font-size="24px"
         id="text268"
         x="227.67384"
         y="591">compact</text>
      <text
         font-family="'Arial Nova', 'Arial Nova_MSFontService', sans-serif"
         font-weight="400"
         font-size="24px"
         transform="translate(340.306,591)"
         id="text270">and simple code</text>
    </g>
  </g>
</svg>
